<mxfile host="app.diagrams.net" modified="2021-07-26T07:48:16.149Z" agent="5.0 (Windows NT 10.0; Win64; x64) AppleWebKit/537.36 (KHTML, like Gecko) Chrome/91.0.4472.164 Safari/537.36" etag="qiEt9kbmB6EDvmB9k10K" version="14.9.2" type="github">
  <diagram id="SJGPeemRXHp4dxk_nkfU" name="第1頁">
    <mxGraphModel dx="1730" dy="912" grid="1" gridSize="10" guides="1" tooltips="1" connect="1" arrows="1" fold="1" page="1" pageScale="1" pageWidth="827" pageHeight="1169" math="0" shadow="0">
      <root>
        <mxCell id="0" />
        <mxCell id="1" parent="0" />
        <mxCell id="Cek0dwOkdXj4hJYfMfxW-9" value="" style="rounded=0;whiteSpace=wrap;html=1;fontSize=20;fillColor=#f5f5f5;fontColor=#333333;strokeColor=none;" vertex="1" parent="1">
          <mxGeometry x="700" y="646" width="520" height="240" as="geometry" />
        </mxCell>
        <mxCell id="0VfdkxeY-cA_35_4lhL5-1" value="test" style="rounded=1;whiteSpace=wrap;html=1;" parent="1" vertex="1">
          <mxGeometry x="300" y="150" width="170" height="60" as="geometry" />
        </mxCell>
        <mxCell id="0VfdkxeY-cA_35_4lhL5-2" value="" style="shape=tape;whiteSpace=wrap;html=1;" vertex="1" parent="1">
          <mxGeometry x="550" y="180" width="120" height="100" as="geometry" />
        </mxCell>
        <mxCell id="Cek0dwOkdXj4hJYfMfxW-3" value="" style="endArrow=none;html=1;strokeWidth=4;" edge="1" parent="1">
          <mxGeometry width="50" height="50" relative="1" as="geometry">
            <mxPoint x="40" y="480" as="sourcePoint" />
            <mxPoint x="800" y="480" as="targetPoint" />
          </mxGeometry>
        </mxCell>
        <mxCell id="Cek0dwOkdXj4hJYfMfxW-4" value="避免互相蓋到，我先編輯下半部" style="text;html=1;strokeColor=none;fillColor=none;align=center;verticalAlign=middle;whiteSpace=wrap;rounded=0;fontSize=30;" vertex="1" parent="1">
          <mxGeometry x="40" y="490" width="430" height="30" as="geometry" />
        </mxCell>
        <mxCell id="Cek0dwOkdXj4hJYfMfxW-5" value="iPASS PAY&lt;br style=&quot;font-size: 20px;&quot;&gt;(使用者端)" style="aspect=fixed;pointerEvents=1;shadow=0;dashed=0;html=1;strokeColor=none;labelPosition=center;verticalLabelPosition=bottom;verticalAlign=top;align=center;fillColor=#00188D;shape=mxgraph.mscae.enterprise.android_phone;fontSize=20;" vertex="1" parent="1">
          <mxGeometry x="79.75" y="641" width="48" height="80" as="geometry" />
        </mxCell>
        <mxCell id="Cek0dwOkdXj4hJYfMfxW-7" value="APP Server" style="verticalLabelPosition=bottom;aspect=fixed;html=1;verticalAlign=top;strokeColor=none;align=center;outlineConnect=0;shape=mxgraph.citrix.web_server;fontSize=20;" vertex="1" parent="1">
          <mxGeometry x="320.26" y="710" width="110.5" height="130" as="geometry" />
        </mxCell>
        <mxCell id="Cek0dwOkdXj4hJYfMfxW-10" value="一卡通內部" style="text;html=1;strokeColor=none;fillColor=none;align=center;verticalAlign=middle;whiteSpace=wrap;rounded=0;fontSize=20;" vertex="1" parent="1">
          <mxGeometry x="710" y="651" width="110" height="20" as="geometry" />
        </mxCell>
        <mxCell id="Cek0dwOkdXj4hJYfMfxW-11" value="特店管理 Server" style="verticalLabelPosition=bottom;aspect=fixed;html=1;verticalAlign=top;strokeColor=none;align=center;outlineConnect=0;shape=mxgraph.citrix.xenapp_server;fontSize=20;" vertex="1" parent="1">
          <mxGeometry x="319.75" y="1090" width="111.01" height="130" as="geometry" />
        </mxCell>
        <mxCell id="Cek0dwOkdXj4hJYfMfxW-13" value="iPASS API Server" style="verticalLabelPosition=bottom;aspect=fixed;html=1;verticalAlign=top;strokeColor=none;align=center;outlineConnect=0;shape=mxgraph.citrix.web_server;fontSize=20;" vertex="1" parent="1">
          <mxGeometry x="790" y="706" width="110.5" height="130" as="geometry" />
        </mxCell>
        <mxCell id="Cek0dwOkdXj4hJYfMfxW-14" value="iPASS PAY&lt;br style=&quot;font-size: 20px&quot;&gt;(特店端)" style="aspect=fixed;pointerEvents=1;shadow=0;dashed=0;html=1;strokeColor=none;labelPosition=center;verticalLabelPosition=bottom;verticalAlign=top;align=center;fillColor=#00188D;shape=mxgraph.mscae.enterprise.android_phone;fontSize=20;" vertex="1" parent="1">
          <mxGeometry x="79.75" y="800" width="48" height="80" as="geometry" />
        </mxCell>
        <mxCell id="Cek0dwOkdXj4hJYfMfxW-25" value="" style="group" vertex="1" connectable="0" parent="1">
          <mxGeometry x="40" y="1000" width="160" height="113.59999999999991" as="geometry" />
        </mxCell>
        <mxCell id="Cek0dwOkdXj4hJYfMfxW-23" value="" style="pointerEvents=1;shadow=0;dashed=0;html=1;strokeColor=none;fillColor=#434445;aspect=fixed;labelPosition=center;verticalLabelPosition=bottom;verticalAlign=top;align=center;outlineConnect=0;shape=mxgraph.vvd.web_browser;fontSize=20;" vertex="1" parent="Cek0dwOkdXj4hJYfMfxW-25">
          <mxGeometry width="160" height="113.6" as="geometry" />
        </mxCell>
        <mxCell id="Cek0dwOkdXj4hJYfMfxW-24" value="" style="shape=image;html=1;verticalAlign=top;verticalLabelPosition=bottom;labelBackgroundColor=#ffffff;imageAspect=0;aspect=fixed;image=https://cdn1.iconfinder.com/data/icons/logotypes/32/chrome-128.png;fontSize=20;" vertex="1" parent="Cek0dwOkdXj4hJYfMfxW-25">
          <mxGeometry x="5" y="4" width="20" height="20" as="geometry" />
        </mxCell>
        <mxCell id="Cek0dwOkdXj4hJYfMfxW-26" value="特店管理 WEB&lt;br&gt;(特店使用)" style="text;html=1;strokeColor=none;fillColor=none;align=center;verticalAlign=middle;whiteSpace=wrap;rounded=0;fontSize=20;" vertex="1" parent="1">
          <mxGeometry x="45" y="1113.6" width="150" height="46.4" as="geometry" />
        </mxCell>
        <mxCell id="Cek0dwOkdXj4hJYfMfxW-28" value="" style="group" vertex="1" connectable="0" parent="1">
          <mxGeometry x="40" y="1200" width="160" height="113.59999999999991" as="geometry" />
        </mxCell>
        <mxCell id="Cek0dwOkdXj4hJYfMfxW-29" value="" style="pointerEvents=1;shadow=0;dashed=0;html=1;strokeColor=none;fillColor=#434445;aspect=fixed;labelPosition=center;verticalLabelPosition=bottom;verticalAlign=top;align=center;outlineConnect=0;shape=mxgraph.vvd.web_browser;fontSize=20;" vertex="1" parent="Cek0dwOkdXj4hJYfMfxW-28">
          <mxGeometry width="160" height="113.6" as="geometry" />
        </mxCell>
        <mxCell id="Cek0dwOkdXj4hJYfMfxW-30" value="" style="shape=image;html=1;verticalAlign=top;verticalLabelPosition=bottom;labelBackgroundColor=#ffffff;imageAspect=0;aspect=fixed;image=https://cdn1.iconfinder.com/data/icons/logotypes/32/chrome-128.png;fontSize=20;" vertex="1" parent="Cek0dwOkdXj4hJYfMfxW-28">
          <mxGeometry x="5" y="4" width="20" height="20" as="geometry" />
        </mxCell>
        <mxCell id="Cek0dwOkdXj4hJYfMfxW-31" value="特店管理 WEB&lt;br&gt;(管理人員使用)" style="text;html=1;strokeColor=none;fillColor=none;align=center;verticalAlign=middle;whiteSpace=wrap;rounded=0;fontSize=20;" vertex="1" parent="1">
          <mxGeometry x="45" y="1313.6" width="150" height="46.4" as="geometry" />
        </mxCell>
        <mxCell id="Cek0dwOkdXj4hJYfMfxW-32" value="" style="group" vertex="1" connectable="0" parent="1">
          <mxGeometry x="40" y="1400" width="160" height="113.59999999999991" as="geometry" />
        </mxCell>
        <mxCell id="Cek0dwOkdXj4hJYfMfxW-33" value="" style="pointerEvents=1;shadow=0;dashed=0;html=1;strokeColor=none;fillColor=#434445;aspect=fixed;labelPosition=center;verticalLabelPosition=bottom;verticalAlign=top;align=center;outlineConnect=0;shape=mxgraph.vvd.web_browser;fontSize=20;" vertex="1" parent="Cek0dwOkdXj4hJYfMfxW-32">
          <mxGeometry width="160" height="113.6" as="geometry" />
        </mxCell>
        <mxCell id="Cek0dwOkdXj4hJYfMfxW-34" value="" style="shape=image;html=1;verticalAlign=top;verticalLabelPosition=bottom;labelBackgroundColor=#ffffff;imageAspect=0;aspect=fixed;image=https://cdn1.iconfinder.com/data/icons/logotypes/32/chrome-128.png;fontSize=20;" vertex="1" parent="Cek0dwOkdXj4hJYfMfxW-32">
          <mxGeometry x="5" y="4" width="20" height="20" as="geometry" />
        </mxCell>
        <mxCell id="Cek0dwOkdXj4hJYfMfxW-35" value="形象首頁 WEB" style="text;html=1;strokeColor=none;fillColor=none;align=center;verticalAlign=middle;whiteSpace=wrap;rounded=0;fontSize=20;" vertex="1" parent="1">
          <mxGeometry x="45" y="1513.6" width="150" height="46.4" as="geometry" />
        </mxCell>
        <mxCell id="Cek0dwOkdXj4hJYfMfxW-36" value="註冊" style="rounded=0;whiteSpace=wrap;html=1;fontSize=18;fillColor=#f5f5f5;strokeColor=#666666;fontColor=#333333;" vertex="1" parent="1">
          <mxGeometry x="440" y="646" width="60" height="59" as="geometry" />
        </mxCell>
        <mxCell id="Cek0dwOkdXj4hJYfMfxW-37" value="收款" style="rounded=0;whiteSpace=wrap;html=1;fontSize=18;fillColor=#f5f5f5;strokeColor=#666666;fontColor=#333333;" vertex="1" parent="1">
          <mxGeometry x="440" y="706" width="60" height="59" as="geometry" />
        </mxCell>
        <mxCell id="Cek0dwOkdXj4hJYfMfxW-38" value="轉帳" style="rounded=0;whiteSpace=wrap;html=1;fontSize=18;fillColor=#f5f5f5;strokeColor=#666666;fontColor=#333333;direction=south;" vertex="1" parent="1">
          <mxGeometry x="500.5" y="705" width="59" height="60" as="geometry" />
        </mxCell>
        <mxCell id="Cek0dwOkdXj4hJYfMfxW-39" value="付款" style="rounded=0;whiteSpace=wrap;html=1;fontSize=18;fillColor=#f5f5f5;strokeColor=#666666;fontColor=#333333;" vertex="1" parent="1">
          <mxGeometry x="560.5" y="645.5" width="60" height="59" as="geometry" />
        </mxCell>
        <mxCell id="Cek0dwOkdXj4hJYfMfxW-40" value="登入" style="rounded=0;whiteSpace=wrap;html=1;fontSize=18;fillColor=#f5f5f5;strokeColor=#666666;fontColor=#333333;" vertex="1" parent="1">
          <mxGeometry x="500.5" y="645.5" width="60" height="59" as="geometry" />
        </mxCell>
        <mxCell id="Cek0dwOkdXj4hJYfMfxW-41" value="交易" style="rounded=0;whiteSpace=wrap;html=1;fontSize=18;fillColor=#f5f5f5;strokeColor=#666666;fontColor=#333333;" vertex="1" parent="1">
          <mxGeometry x="560.5" y="705" width="60" height="59" as="geometry" />
        </mxCell>
        <mxCell id="Cek0dwOkdXj4hJYfMfxW-42" value="儲值" style="rounded=0;whiteSpace=wrap;html=1;fontSize=18;fillColor=#f5f5f5;strokeColor=#666666;fontColor=#333333;" vertex="1" parent="1">
          <mxGeometry x="439.75" y="766" width="60" height="59" as="geometry" />
        </mxCell>
        <mxCell id="Cek0dwOkdXj4hJYfMfxW-43" value="提領" style="rounded=0;whiteSpace=wrap;html=1;fontSize=18;fillColor=#f5f5f5;strokeColor=#666666;fontColor=#333333;direction=south;" vertex="1" parent="1">
          <mxGeometry x="500.25" y="765" width="59" height="59" as="geometry" />
        </mxCell>
        <mxCell id="Cek0dwOkdXj4hJYfMfxW-44" value="電票" style="rounded=0;whiteSpace=wrap;html=1;fontSize=18;fillColor=#f5f5f5;strokeColor=#666666;fontColor=#333333;" vertex="1" parent="1">
          <mxGeometry x="560.25" y="765" width="60" height="59" as="geometry" />
        </mxCell>
        <mxCell id="Cek0dwOkdXj4hJYfMfxW-45" value="生活&lt;br&gt;繳費" style="rounded=0;whiteSpace=wrap;html=1;fontSize=18;fillColor=#f5f5f5;strokeColor=#666666;fontColor=#333333;" vertex="1" parent="1">
          <mxGeometry x="439.5" y="826" width="60" height="59" as="geometry" />
        </mxCell>
        <mxCell id="Cek0dwOkdXj4hJYfMfxW-46" value="乘車碼" style="rounded=0;whiteSpace=wrap;html=1;fontSize=18;fillColor=#f5f5f5;strokeColor=#666666;fontColor=#333333;direction=south;" vertex="1" parent="1">
          <mxGeometry x="500" y="825" width="59" height="59" as="geometry" />
        </mxCell>
        <mxCell id="Cek0dwOkdXj4hJYfMfxW-47" value="聊天" style="rounded=0;whiteSpace=wrap;html=1;fontSize=18;fillColor=#f8cecc;strokeColor=#b85450;" vertex="1" parent="1">
          <mxGeometry x="560" y="825" width="60" height="59" as="geometry" />
        </mxCell>
        <mxCell id="Cek0dwOkdXj4hJYfMfxW-48" value="推播" style="rounded=0;whiteSpace=wrap;html=1;fontSize=18;fillColor=#f8cecc;strokeColor=#b85450;" vertex="1" parent="1">
          <mxGeometry x="439.5" y="885" width="60" height="59" as="geometry" />
        </mxCell>
        <mxCell id="Cek0dwOkdXj4hJYfMfxW-49" value="好友" style="rounded=0;whiteSpace=wrap;html=1;fontSize=18;fillColor=#f8cecc;strokeColor=#b85450;" vertex="1" parent="1">
          <mxGeometry x="499" y="885" width="60" height="59" as="geometry" />
        </mxCell>
        <mxCell id="Cek0dwOkdXj4hJYfMfxW-50" value="特店服務" style="rounded=0;whiteSpace=wrap;html=1;fontSize=18;fillColor=#fff2cc;strokeColor=#d6b656;" vertex="1" parent="1">
          <mxGeometry x="500" y="944" width="119" height="59" as="geometry" />
        </mxCell>
        <mxCell id="Cek0dwOkdXj4hJYfMfxW-66" value="註冊" style="rounded=0;whiteSpace=wrap;html=1;fontSize=18;fillColor=#f5f5f5;strokeColor=#666666;fontColor=#333333;" vertex="1" parent="1">
          <mxGeometry x="450" y="1040.5" width="60" height="59" as="geometry" />
        </mxCell>
        <mxCell id="Cek0dwOkdXj4hJYfMfxW-67" value="管理基本資訊" style="rounded=0;whiteSpace=wrap;html=1;fontSize=18;fillColor=#f5f5f5;strokeColor=#666666;fontColor=#333333;" vertex="1" parent="1">
          <mxGeometry x="450" y="1100.5" width="60" height="59" as="geometry" />
        </mxCell>
        <mxCell id="Cek0dwOkdXj4hJYfMfxW-68" value="商店資料登記" style="rounded=0;whiteSpace=wrap;html=1;fontSize=18;fillColor=#f5f5f5;strokeColor=#666666;fontColor=#333333;direction=south;" vertex="1" parent="1">
          <mxGeometry x="510.5" y="1099.5" width="59" height="60" as="geometry" />
        </mxCell>
        <mxCell id="Cek0dwOkdXj4hJYfMfxW-69" value="帳戶&lt;br&gt;管理" style="rounded=0;whiteSpace=wrap;html=1;fontSize=18;fillColor=#f5f5f5;strokeColor=#666666;fontColor=#333333;" vertex="1" parent="1">
          <mxGeometry x="570.5" y="1040" width="59.5" height="59" as="geometry" />
        </mxCell>
        <mxCell id="Cek0dwOkdXj4hJYfMfxW-70" value="登入" style="rounded=0;whiteSpace=wrap;html=1;fontSize=18;fillColor=#f5f5f5;strokeColor=#666666;fontColor=#333333;" vertex="1" parent="1">
          <mxGeometry x="510.5" y="1040" width="60" height="59" as="geometry" />
        </mxCell>
        <mxCell id="Cek0dwOkdXj4hJYfMfxW-71" value="管理&lt;br&gt;交易" style="rounded=0;whiteSpace=wrap;html=1;fontSize=18;fillColor=#f5f5f5;strokeColor=#666666;fontColor=#333333;" vertex="1" parent="1">
          <mxGeometry x="570.5" y="1099.5" width="60" height="59" as="geometry" />
        </mxCell>
        <mxCell id="Cek0dwOkdXj4hJYfMfxW-72" value="交易&lt;br&gt;紀錄" style="rounded=0;whiteSpace=wrap;html=1;fontSize=18;fillColor=#f5f5f5;strokeColor=#666666;fontColor=#333333;" vertex="1" parent="1">
          <mxGeometry x="449.75" y="1160.5" width="60" height="59" as="geometry" />
        </mxCell>
        <mxCell id="Cek0dwOkdXj4hJYfMfxW-73" value="退款" style="rounded=0;whiteSpace=wrap;html=1;fontSize=18;fillColor=#f5f5f5;strokeColor=#666666;fontColor=#333333;direction=south;" vertex="1" parent="1">
          <mxGeometry x="510.25" y="1159.5" width="59" height="59" as="geometry" />
        </mxCell>
        <mxCell id="Cek0dwOkdXj4hJYfMfxW-74" value="存撥款&lt;br&gt;結算" style="rounded=0;whiteSpace=wrap;html=1;fontSize=18;fillColor=#f5f5f5;strokeColor=#666666;fontColor=#333333;" vertex="1" parent="1">
          <mxGeometry x="570.25" y="1159.5" width="60" height="59" as="geometry" />
        </mxCell>
        <mxCell id="Cek0dwOkdXj4hJYfMfxW-75" value="電子&lt;br&gt;發票" style="rounded=0;whiteSpace=wrap;html=1;fontSize=18;fillColor=#f5f5f5;strokeColor=#666666;fontColor=#333333;" vertex="1" parent="1">
          <mxGeometry x="449.5" y="1220.5" width="60" height="59" as="geometry" />
        </mxCell>
        <mxCell id="Cek0dwOkdXj4hJYfMfxW-76" value="資料&lt;br&gt;下載" style="rounded=0;whiteSpace=wrap;html=1;fontSize=18;fillColor=#f5f5f5;strokeColor=#666666;fontColor=#333333;direction=south;" vertex="1" parent="1">
          <mxGeometry x="510" y="1219.5" width="59" height="59" as="geometry" />
        </mxCell>
        <mxCell id="Cek0dwOkdXj4hJYfMfxW-77" value="付款&lt;br&gt;連結" style="rounded=0;whiteSpace=wrap;html=1;fontSize=18;fillColor=#f5f5f5;strokeColor=#666666;fontColor=#333333;" vertex="1" parent="1">
          <mxGeometry x="570" y="1219.5" width="60" height="59" as="geometry" />
        </mxCell>
        <mxCell id="Cek0dwOkdXj4hJYfMfxW-78" value="客服&lt;br&gt;資訊" style="rounded=0;whiteSpace=wrap;html=1;fontSize=18;fillColor=#f5f5f5;strokeColor=#666666;fontColor=#333333;" vertex="1" parent="1">
          <mxGeometry x="449.5" y="1279.5" width="60" height="59" as="geometry" />
        </mxCell>
        <mxCell id="Cek0dwOkdXj4hJYfMfxW-79" value="規範&lt;br&gt;說明" style="rounded=0;whiteSpace=wrap;html=1;fontSize=18;fillColor=#f5f5f5;strokeColor=#666666;fontColor=#333333;" vertex="1" parent="1">
          <mxGeometry x="509" y="1279.5" width="60" height="59" as="geometry" />
        </mxCell>
        <mxCell id="Cek0dwOkdXj4hJYfMfxW-80" value="教學&lt;br&gt;說明" style="rounded=0;whiteSpace=wrap;html=1;fontSize=18;fillColor=#f5f5f5;strokeColor=#666666;fontColor=#333333;" vertex="1" parent="1">
          <mxGeometry x="570.5" y="1279.5" width="60" height="59" as="geometry" />
        </mxCell>
        <mxCell id="Cek0dwOkdXj4hJYfMfxW-83" value="綁卡" style="rounded=0;whiteSpace=wrap;html=1;fontSize=18;fillColor=#f8cecc;strokeColor=#b85450;" vertex="1" parent="1">
          <mxGeometry x="559.5" y="885" width="60" height="59" as="geometry" />
        </mxCell>
        <mxCell id="Cek0dwOkdXj4hJYfMfxW-84" value="信用卡&lt;br&gt;管理" style="rounded=0;whiteSpace=wrap;html=1;fontSize=18;fillColor=#f8cecc;strokeColor=#b85450;" vertex="1" parent="1">
          <mxGeometry x="439.5" y="944" width="60" height="59" as="geometry" />
        </mxCell>
      </root>
    </mxGraphModel>
  </diagram>
</mxfile>
